<svg width="649" height="788" viewBox="0 0 649 788" fill="none" xmlns="http://www.w3.org/2000/svg">
<rect width="649" height="788" fill="white"/>
<ellipse cx="209" cy="118.5" rx="16" ry="16.5" fill="#D9D9D9"/>
<rect x="172.5" y="349.5" width="287" height="79" stroke="black"/>
<ellipse cx="414" cy="118.5" rx="16" ry="16.5" fill="#D9D9D9"/>
<path d="M169.825 89V80.2727H173.268C173.93 80.2727 174.494 80.3991 174.96 80.652C175.426 80.902 175.781 81.25 176.025 81.696C176.272 82.1392 176.396 82.6506 176.396 83.2301C176.396 83.8097 176.271 84.321 176.021 84.7642C175.771 85.2074 175.409 85.5526 174.934 85.7997C174.463 86.0469 173.892 86.1705 173.221 86.1705H171.027V84.6918H172.923C173.278 84.6918 173.571 84.6307 173.801 84.5085C174.034 84.3835 174.207 84.2116 174.321 83.9929C174.437 83.7713 174.495 83.517 174.495 83.2301C174.495 82.9403 174.437 82.6875 174.321 82.4716C174.207 82.2528 174.034 82.0838 173.801 81.9645C173.568 81.8423 173.272 81.7812 172.914 81.7812H171.67V89H169.825ZM180.438 89.1278C179.765 89.1278 179.185 88.9915 178.699 88.7188C178.216 88.4432 177.844 88.054 177.583 87.5511C177.321 87.0455 177.191 86.4474 177.191 85.7571C177.191 85.0838 177.321 84.4929 177.583 83.9844C177.844 83.4759 178.212 83.0795 178.686 82.7955C179.164 82.5114 179.723 82.3693 180.365 82.3693C180.797 82.3693 181.199 82.4389 181.571 82.5781C181.946 82.7145 182.273 82.9205 182.551 83.196C182.833 83.4716 183.051 83.8182 183.208 84.2358C183.364 84.6506 183.442 85.1364 183.442 85.6932V86.1918H177.915V85.0668H181.733C181.733 84.8054 181.676 84.5739 181.563 84.3722C181.449 84.1705 181.292 84.0128 181.09 83.8991C180.891 83.7827 180.659 83.7244 180.395 83.7244C180.12 83.7244 179.875 83.7884 179.662 83.9162C179.452 84.0412 179.287 84.2102 179.168 84.4233C179.049 84.6335 178.988 84.8679 178.985 85.1264V86.196C178.985 86.5199 179.044 86.7997 179.164 87.0355C179.286 87.2713 179.458 87.4531 179.679 87.581C179.901 87.7088 180.164 87.7727 180.468 87.7727C180.669 87.7727 180.854 87.7443 181.022 87.6875C181.189 87.6307 181.333 87.5455 181.452 87.4318C181.571 87.3182 181.662 87.179 181.725 87.0142L183.404 87.125C183.319 87.5284 183.144 87.8807 182.88 88.1818C182.618 88.4801 182.28 88.7131 181.865 88.8807C181.453 89.0455 180.978 89.1278 180.438 89.1278ZM184.627 89V82.4545H186.387V83.5966H186.455C186.574 83.1903 186.775 82.8835 187.056 82.6761C187.337 82.4659 187.661 82.3608 188.027 82.3608C188.118 82.3608 188.216 82.3665 188.321 82.3778C188.426 82.3892 188.519 82.4048 188.598 82.4247V84.0355C188.513 84.0099 188.395 83.9872 188.245 83.9673C188.094 83.9474 187.956 83.9375 187.831 83.9375C187.564 83.9375 187.326 83.9957 187.115 84.1122C186.908 84.2259 186.743 84.3849 186.621 84.5895C186.502 84.794 186.442 85.0298 186.442 85.2969V89H184.627ZM194.983 84.321L193.321 84.4233C193.293 84.2812 193.232 84.1534 193.138 84.0398C193.044 83.9233 192.92 83.831 192.767 83.7628C192.616 83.6918 192.436 83.6562 192.226 83.6562C191.945 83.6562 191.707 83.7159 191.514 83.8352C191.321 83.9517 191.224 84.108 191.224 84.304C191.224 84.4602 191.287 84.5923 191.412 84.7003C191.537 84.8082 191.751 84.8949 192.055 84.9602L193.24 85.1989C193.876 85.3295 194.351 85.5398 194.663 85.8295C194.976 86.1193 195.132 86.5 195.132 86.9716C195.132 87.4006 195.006 87.777 194.753 88.1009C194.503 88.4247 194.159 88.6776 193.722 88.8594C193.287 89.0384 192.786 89.1278 192.217 89.1278C191.351 89.1278 190.661 88.9474 190.146 88.5866C189.635 88.223 189.335 87.7287 189.247 87.1037L191.033 87.0099C191.087 87.2741 191.217 87.4759 191.425 87.6151C191.632 87.7514 191.898 87.8196 192.222 87.8196C192.54 87.8196 192.795 87.7585 192.989 87.6364C193.185 87.5114 193.284 87.3509 193.287 87.1548C193.284 86.9901 193.214 86.8551 193.078 86.75C192.942 86.642 192.732 86.5597 192.447 86.5028L191.314 86.277C190.675 86.1491 190.199 85.9276 189.886 85.6122C189.577 85.2969 189.422 84.8949 189.422 84.4062C189.422 83.9858 189.536 83.6236 189.763 83.3196C189.993 83.0156 190.315 82.7812 190.73 82.6165C191.148 82.4517 191.636 82.3693 192.196 82.3693C193.023 82.3693 193.673 82.544 194.148 82.8935C194.625 83.2429 194.903 83.7187 194.983 84.321ZM196.275 91.4545V82.4545H198.065V83.554H198.146C198.225 83.3778 198.341 83.1989 198.491 83.017C198.645 82.8324 198.843 82.679 199.088 82.5568C199.335 82.4318 199.642 82.3693 200.008 82.3693C200.485 82.3693 200.926 82.4943 201.329 82.7443C201.733 82.9915 202.055 83.3651 202.297 83.8651C202.538 84.3622 202.659 84.9858 202.659 85.7358C202.659 86.4659 202.541 87.0824 202.305 87.5852C202.072 88.0852 201.754 88.4645 201.35 88.723C200.95 88.9787 200.501 89.1065 200.004 89.1065C199.652 89.1065 199.352 89.0483 199.105 88.9318C198.86 88.8153 198.66 88.669 198.504 88.4929C198.348 88.3139 198.228 88.1335 198.146 87.9517H198.091V91.4545H196.275ZM198.052 85.7273C198.052 86.1165 198.106 86.456 198.214 86.7457C198.322 87.0355 198.478 87.2614 198.683 87.4233C198.887 87.5824 199.136 87.6619 199.429 87.6619C199.724 87.6619 199.974 87.581 200.179 87.419C200.383 87.2543 200.538 87.027 200.643 86.7372C200.751 86.4446 200.805 86.108 200.805 85.7273C200.805 85.3494 200.752 85.017 200.647 84.7301C200.542 84.4432 200.387 84.2187 200.183 84.0568C199.978 83.8949 199.727 83.8139 199.429 83.8139C199.133 83.8139 198.883 83.892 198.679 84.0483C198.477 84.2045 198.322 84.4261 198.214 84.7131C198.106 85 198.052 85.3381 198.052 85.7273ZM206.852 89.1278C206.179 89.1278 205.599 88.9915 205.113 88.7188C204.63 88.4432 204.258 88.054 203.997 87.5511C203.735 87.0455 203.605 86.4474 203.605 85.7571C203.605 85.0838 203.735 84.4929 203.997 83.9844C204.258 83.4759 204.626 83.0795 205.1 82.7955C205.578 82.5114 206.137 82.3693 206.779 82.3693C207.211 82.3693 207.613 82.4389 207.985 82.5781C208.36 82.7145 208.687 82.9205 208.966 83.196C209.247 83.4716 209.466 83.8182 209.622 84.2358C209.778 84.6506 209.856 85.1364 209.856 85.6932V86.1918H204.329V85.0668H208.147C208.147 84.8054 208.091 84.5739 207.977 84.3722C207.863 84.1705 207.706 84.0128 207.504 83.8991C207.305 83.7827 207.074 83.7244 206.809 83.7244C206.534 83.7244 206.289 83.7884 206.076 83.9162C205.866 84.0412 205.701 84.2102 205.582 84.4233C205.463 84.6335 205.402 84.8679 205.399 85.1264V86.196C205.399 86.5199 205.458 86.7997 205.578 87.0355C205.7 87.2713 205.872 87.4531 206.093 87.581C206.315 87.7088 206.578 87.7727 206.882 87.7727C207.083 87.7727 207.268 87.7443 207.436 87.6875C207.603 87.6307 207.747 87.5455 207.866 87.4318C207.985 87.3182 208.076 87.179 208.139 87.0142L209.818 87.125C209.733 87.5284 209.558 87.8807 209.294 88.1818C209.032 88.4801 208.694 88.7131 208.279 88.8807C207.868 89.0455 207.392 89.1278 206.852 89.1278ZM213.998 89.1278C213.328 89.1278 212.751 88.9858 212.268 88.7017C211.788 88.4148 211.419 88.017 211.16 87.5085C210.904 87 210.777 86.4148 210.777 85.7528C210.777 85.0824 210.906 84.4943 211.164 83.9886C211.426 83.4801 211.797 83.0838 212.277 82.7997C212.757 82.5128 213.328 82.3693 213.99 82.3693C214.561 82.3693 215.061 82.473 215.49 82.6804C215.919 82.8878 216.258 83.179 216.508 83.554C216.758 83.929 216.896 84.3693 216.922 84.875H215.208C215.16 84.5483 215.032 84.2855 214.825 84.0866C214.62 83.8849 214.352 83.7841 214.02 83.7841C213.738 83.7841 213.493 83.8608 213.282 84.0142C213.075 84.1648 212.913 84.3849 212.797 84.6747C212.68 84.9645 212.622 85.3153 212.622 85.7273C212.622 86.1449 212.679 86.5 212.792 86.7926C212.909 87.0852 213.072 87.3082 213.282 87.4616C213.493 87.6151 213.738 87.6918 214.02 87.6918C214.227 87.6918 214.413 87.6491 214.578 87.5639C214.745 87.4787 214.883 87.3551 214.991 87.1932C215.102 87.0284 215.174 86.831 215.208 86.6009H216.922C216.893 87.1009 216.757 87.5412 216.512 87.9219C216.271 88.2997 215.937 88.5952 215.511 88.8082C215.085 89.0213 214.581 89.1278 213.998 89.1278ZM221.565 82.4545V83.8182H217.624V82.4545H221.565ZM218.518 80.8864H220.334V86.9886C220.334 87.1562 220.359 87.2869 220.411 87.3807C220.462 87.4716 220.533 87.5355 220.624 87.5724C220.717 87.6094 220.825 87.6278 220.947 87.6278C221.033 87.6278 221.118 87.6207 221.203 87.6065C221.288 87.5895 221.354 87.5767 221.399 87.5682L221.685 88.919C221.594 88.9474 221.466 88.9801 221.301 89.017C221.136 89.0568 220.936 89.081 220.7 89.0895C220.263 89.1065 219.879 89.0483 219.55 88.9148C219.223 88.7812 218.969 88.5739 218.787 88.2926C218.605 88.0114 218.516 87.6562 218.518 87.2273V80.8864ZM222.748 89V82.4545H224.563V89H222.748ZM223.66 81.6108C223.39 81.6108 223.158 81.5213 222.965 81.3423C222.775 81.1605 222.68 80.9432 222.68 80.6903C222.68 80.4403 222.775 80.2259 222.965 80.0469C223.158 79.8651 223.39 79.7741 223.66 79.7741C223.93 79.7741 224.16 79.8651 224.35 80.0469C224.543 80.2259 224.64 80.4403 224.64 80.6903C224.64 80.9432 224.543 81.1605 224.35 81.3423C224.16 81.5213 223.93 81.6108 223.66 81.6108ZM232.12 82.4545L229.831 89H227.786L225.498 82.4545H227.415L228.775 87.1378H228.843L230.198 82.4545H232.12ZM235.821 89.1278C235.147 89.1278 234.568 88.9915 234.082 88.7188C233.599 88.4432 233.227 88.054 232.966 87.5511C232.704 87.0455 232.574 86.4474 232.574 85.7571C232.574 85.0838 232.704 84.4929 232.966 83.9844C233.227 83.4759 233.595 83.0795 234.069 82.7955C234.547 82.5114 235.106 82.3693 235.748 82.3693C236.18 82.3693 236.582 82.4389 236.954 82.5781C237.329 82.7145 237.656 82.9205 237.934 83.196C238.216 83.4716 238.434 83.8182 238.591 84.2358C238.747 84.6506 238.825 85.1364 238.825 85.6932V86.1918H233.298V85.0668H237.116C237.116 84.8054 237.059 84.5739 236.946 84.3722C236.832 84.1705 236.674 84.0128 236.473 83.8991C236.274 83.7827 236.042 83.7244 235.778 83.7244C235.502 83.7244 235.258 83.7884 235.045 83.9162C234.835 84.0412 234.67 84.2102 234.551 84.4233C234.431 84.6335 234.37 84.8679 234.368 85.1264V86.196C234.368 86.5199 234.427 86.7997 234.547 87.0355C234.669 87.2713 234.841 87.4531 235.062 87.581C235.284 87.7088 235.547 87.7727 235.85 87.7727C236.052 87.7727 236.237 87.7443 236.404 87.6875C236.572 87.6307 236.716 87.5455 236.835 87.4318C236.954 87.3182 237.045 87.179 237.108 87.0142L238.787 87.125C238.701 87.5284 238.527 87.8807 238.262 88.1818C238.001 88.4801 237.663 88.7131 237.248 88.8807C236.836 89.0455 236.36 89.1278 235.821 89.1278ZM246.567 80.2727V89H244.722V82.0241H244.67L242.672 83.277V81.6406L244.832 80.2727H246.567Z" fill="black"/>
<path d="M378.981 86V77.2727H382.424C383.086 77.2727 383.65 77.3991 384.116 77.652C384.582 77.902 384.937 78.25 385.181 78.696C385.429 79.1392 385.552 79.6506 385.552 80.2301C385.552 80.8097 385.427 81.321 385.177 81.7642C384.927 82.2074 384.565 82.5526 384.091 82.7997C383.619 83.0469 383.048 83.1705 382.377 83.1705H380.183V81.6918H382.079C382.434 81.6918 382.727 81.6307 382.957 81.5085C383.19 81.3835 383.363 81.2116 383.477 80.9929C383.593 80.7713 383.652 80.517 383.652 80.2301C383.652 79.9403 383.593 79.6875 383.477 79.4716C383.363 79.2528 383.19 79.0838 382.957 78.9645C382.724 78.8423 382.429 78.7812 382.071 78.7812H380.826V86H378.981ZM389.594 86.1278C388.921 86.1278 388.341 85.9915 387.855 85.7188C387.373 85.4432 387 85.054 386.739 84.5511C386.478 84.0455 386.347 83.4474 386.347 82.7571C386.347 82.0838 386.478 81.4929 386.739 80.9844C387 80.4759 387.368 80.0795 387.843 79.7955C388.32 79.5114 388.88 79.3693 389.522 79.3693C389.953 79.3693 390.355 79.4389 390.728 79.5781C391.103 79.7145 391.429 79.9205 391.708 80.196C391.989 80.4716 392.208 80.8182 392.364 81.2358C392.52 81.6506 392.598 82.1364 392.598 82.6932V83.1918H387.071V82.0668H390.89C390.89 81.8054 390.833 81.5739 390.719 81.3722C390.605 81.1705 390.448 81.0128 390.246 80.8991C390.047 80.7827 389.816 80.7244 389.551 80.7244C389.276 80.7244 389.032 80.7884 388.819 80.9162C388.608 81.0412 388.444 81.2102 388.324 81.4233C388.205 81.6335 388.144 81.8679 388.141 82.1264V83.196C388.141 83.5199 388.201 83.7997 388.32 84.0355C388.442 84.2713 388.614 84.4531 388.836 84.581C389.057 84.7088 389.32 84.7727 389.624 84.7727C389.826 84.7727 390.01 84.7443 390.178 84.6875C390.346 84.6307 390.489 84.5455 390.608 84.4318C390.728 84.3182 390.819 84.179 390.881 84.0142L392.56 84.125C392.475 84.5284 392.3 84.8807 392.036 85.1818C391.775 85.4801 391.436 85.7131 391.022 85.8807C390.61 86.0455 390.134 86.1278 389.594 86.1278ZM393.783 86V79.4545H395.543V80.5966H395.611C395.73 80.1903 395.931 79.8835 396.212 79.6761C396.493 79.4659 396.817 79.3608 397.184 79.3608C397.275 79.3608 397.373 79.3665 397.478 79.3778C397.583 79.3892 397.675 79.4048 397.755 79.4247V81.0355C397.669 81.0099 397.551 80.9872 397.401 80.9673C397.25 80.9474 397.113 80.9375 396.988 80.9375C396.721 80.9375 396.482 80.9957 396.272 81.1122C396.064 81.2259 395.9 81.3849 395.777 81.5895C395.658 81.794 395.598 82.0298 395.598 82.2969V86H393.783ZM404.139 81.321L402.477 81.4233C402.449 81.2812 402.388 81.1534 402.294 81.0398C402.2 80.9233 402.077 80.831 401.923 80.7628C401.773 80.6918 401.592 80.6562 401.382 80.6562C401.101 80.6562 400.864 80.7159 400.67 80.8352C400.477 80.9517 400.381 81.108 400.381 81.304C400.381 81.4602 400.443 81.5923 400.568 81.7003C400.693 81.8082 400.908 81.8949 401.212 81.9602L402.396 82.1989C403.033 82.3295 403.507 82.5398 403.82 82.8295C404.132 83.1193 404.288 83.5 404.288 83.9716C404.288 84.4006 404.162 84.777 403.909 85.1009C403.659 85.4247 403.315 85.6776 402.878 85.8594C402.443 86.0384 401.942 86.1278 401.374 86.1278C400.507 86.1278 399.817 85.9474 399.303 85.5866C398.791 85.223 398.491 84.7287 398.403 84.1037L400.189 84.0099C400.243 84.2741 400.374 84.4759 400.581 84.6151C400.788 84.7514 401.054 84.8196 401.378 84.8196C401.696 84.8196 401.952 84.7585 402.145 84.6364C402.341 84.5114 402.44 84.3509 402.443 84.1548C402.44 83.9901 402.371 83.8551 402.234 83.75C402.098 83.642 401.888 83.5597 401.604 83.5028L400.47 83.277C399.831 83.1491 399.355 82.9276 399.043 82.6122C398.733 82.2969 398.578 81.8949 398.578 81.4062C398.578 80.9858 398.692 80.6236 398.919 80.3196C399.149 80.0156 399.472 79.7812 399.886 79.6165C400.304 79.4517 400.793 79.3693 401.352 79.3693C402.179 79.3693 402.83 79.544 403.304 79.8935C403.781 80.2429 404.06 80.7187 404.139 81.321ZM405.431 88.4545V79.4545H407.221V80.554H407.302C407.382 80.3778 407.497 80.1989 407.647 80.017C407.801 79.8324 408 79.679 408.244 79.5568C408.491 79.4318 408.798 79.3693 409.164 79.3693C409.642 79.3693 410.082 79.4943 410.485 79.7443C410.889 79.9915 411.211 80.3651 411.453 80.8651C411.694 81.3622 411.815 81.9858 411.815 82.7358C411.815 83.4659 411.697 84.0824 411.461 84.5852C411.228 85.0852 410.91 85.4645 410.507 85.723C410.106 85.9787 409.657 86.1065 409.16 86.1065C408.808 86.1065 408.508 86.0483 408.261 85.9318C408.017 85.8153 407.816 85.669 407.66 85.4929C407.504 85.3139 407.385 85.1335 407.302 84.9517H407.247V88.4545H405.431ZM407.208 82.7273C407.208 83.1165 407.262 83.456 407.37 83.7457C407.478 84.0355 407.635 84.2614 407.839 84.4233C408.044 84.5824 408.292 84.6619 408.585 84.6619C408.88 84.6619 409.13 84.581 409.335 84.419C409.539 84.2543 409.694 84.027 409.799 83.7372C409.907 83.4446 409.961 83.108 409.961 82.7273C409.961 82.3494 409.909 82.017 409.804 81.7301C409.699 81.4432 409.544 81.2187 409.339 81.0568C409.135 80.8949 408.883 80.8139 408.585 80.8139C408.289 80.8139 408.039 80.892 407.835 81.0483C407.633 81.2045 407.478 81.4261 407.37 81.7131C407.262 82 407.208 82.3381 407.208 82.7273ZM416.008 86.1278C415.335 86.1278 414.755 85.9915 414.27 85.7188C413.787 85.4432 413.414 85.054 413.153 84.5511C412.892 84.0455 412.761 83.4474 412.761 82.7571C412.761 82.0838 412.892 81.4929 413.153 80.9844C413.414 80.4759 413.782 80.0795 414.257 79.7955C414.734 79.5114 415.294 79.3693 415.936 79.3693C416.368 79.3693 416.77 79.4389 417.142 79.5781C417.517 79.7145 417.843 79.9205 418.122 80.196C418.403 80.4716 418.622 80.8182 418.778 81.2358C418.934 81.6506 419.012 82.1364 419.012 82.6932V83.1918H413.485V82.0668H417.304C417.304 81.8054 417.247 81.5739 417.133 81.3722C417.02 81.1705 416.862 81.0128 416.66 80.8991C416.461 80.7827 416.23 80.7244 415.966 80.7244C415.69 80.7244 415.446 80.7884 415.233 80.9162C415.022 81.0412 414.858 81.2102 414.738 81.4233C414.619 81.6335 414.558 81.8679 414.555 82.1264V83.196C414.555 83.5199 414.615 83.7997 414.734 84.0355C414.856 84.2713 415.028 84.4531 415.25 84.581C415.471 84.7088 415.734 84.7727 416.038 84.7727C416.24 84.7727 416.424 84.7443 416.592 84.6875C416.76 84.6307 416.903 84.5455 417.022 84.4318C417.142 84.3182 417.233 84.179 417.295 84.0142L418.974 84.125C418.889 84.5284 418.714 84.8807 418.45 85.1818C418.189 85.4801 417.85 85.7131 417.436 85.8807C417.024 86.0455 416.548 86.1278 416.008 86.1278ZM423.154 86.1278C422.484 86.1278 421.907 85.9858 421.424 85.7017C420.944 85.4148 420.575 85.017 420.316 84.5085C420.061 84 419.933 83.4148 419.933 82.7528C419.933 82.0824 420.062 81.4943 420.321 80.9886C420.582 80.4801 420.953 80.0838 421.433 79.7997C421.913 79.5128 422.484 79.3693 423.146 79.3693C423.717 79.3693 424.217 79.473 424.646 79.6804C425.075 79.8878 425.414 80.179 425.664 80.554C425.914 80.929 426.052 81.3693 426.078 81.875H424.365C424.316 81.5483 424.189 81.2855 423.981 81.0866C423.777 80.8849 423.508 80.7841 423.176 80.7841C422.895 80.7841 422.649 80.8608 422.439 81.0142C422.231 81.1648 422.069 81.3849 421.953 81.6747C421.836 81.9645 421.778 82.3153 421.778 82.7273C421.778 83.1449 421.835 83.5 421.949 83.7926C422.065 84.0852 422.228 84.3082 422.439 84.4616C422.649 84.6151 422.895 84.6918 423.176 84.6918C423.383 84.6918 423.569 84.6491 423.734 84.5639C423.902 84.4787 424.039 84.3551 424.147 84.1932C424.258 84.0284 424.331 83.831 424.365 83.6009H426.078C426.049 84.1009 425.913 84.5412 425.669 84.9219C425.427 85.2997 425.093 85.5952 424.667 85.8082C424.241 86.0213 423.737 86.1278 423.154 86.1278ZM430.722 79.4545V80.8182H426.78V79.4545H430.722ZM427.675 77.8864H429.49V83.9886C429.49 84.1562 429.516 84.2869 429.567 84.3807C429.618 84.4716 429.689 84.5355 429.78 84.5724C429.874 84.6094 429.982 84.6278 430.104 84.6278C430.189 84.6278 430.274 84.6207 430.359 84.6065C430.445 84.5895 430.51 84.5767 430.555 84.5682L430.841 85.919C430.75 85.9474 430.622 85.9801 430.457 86.017C430.293 86.0568 430.092 86.081 429.857 86.0895C429.419 86.1065 429.036 86.0483 428.706 85.9148C428.379 85.7812 428.125 85.5739 427.943 85.2926C427.761 85.0114 427.672 84.6562 427.675 84.2273V77.8864ZM431.904 86V79.4545H433.719V86H431.904ZM432.816 78.6108C432.546 78.6108 432.315 78.5213 432.121 78.3423C431.931 78.1605 431.836 77.9432 431.836 77.6903C431.836 77.4403 431.931 77.2259 432.121 77.0469C432.315 76.8651 432.546 76.7741 432.816 76.7741C433.086 76.7741 433.316 76.8651 433.506 77.0469C433.7 77.2259 433.796 77.4403 433.796 77.6903C433.796 77.9432 433.7 78.1605 433.506 78.3423C433.316 78.5213 433.086 78.6108 432.816 78.6108ZM441.276 79.4545L438.988 86H436.942L434.654 79.4545H436.571L437.931 84.1378H437.999L439.354 79.4545H441.276ZM444.977 86.1278C444.304 86.1278 443.724 85.9915 443.238 85.7188C442.755 85.4432 442.383 85.054 442.122 84.5511C441.86 84.0455 441.73 83.4474 441.73 82.7571C441.73 82.0838 441.86 81.4929 442.122 80.9844C442.383 80.4759 442.751 80.0795 443.225 79.7955C443.703 79.5114 444.262 79.3693 444.904 79.3693C445.336 79.3693 445.738 79.4389 446.11 79.5781C446.485 79.7145 446.812 79.9205 447.091 80.196C447.372 80.4716 447.591 80.8182 447.747 81.2358C447.903 81.6506 447.981 82.1364 447.981 82.6932V83.1918H442.454V82.0668H446.272C446.272 81.8054 446.216 81.5739 446.102 81.3722C445.988 81.1705 445.831 81.0128 445.629 80.8991C445.43 80.7827 445.199 80.7244 444.934 80.7244C444.659 80.7244 444.414 80.7884 444.201 80.9162C443.991 81.0412 443.826 81.2102 443.707 81.4233C443.588 81.6335 443.527 81.8679 443.524 82.1264V83.196C443.524 83.5199 443.583 83.7997 443.703 84.0355C443.825 84.2713 443.997 84.4531 444.218 84.581C444.44 84.7088 444.703 84.7727 445.007 84.7727C445.208 84.7727 445.393 84.7443 445.561 84.6875C445.728 84.6307 445.872 84.5455 445.991 84.4318C446.11 84.3182 446.201 84.179 446.264 84.0142L447.943 84.125C447.858 84.5284 447.683 84.8807 447.419 85.1818C447.157 85.4801 446.819 85.7131 446.404 85.8807C445.993 86.0455 445.517 86.1278 444.977 86.1278ZM451.926 86V84.6705L455.033 81.794C455.297 81.5384 455.518 81.3082 455.697 81.1037C455.879 80.8991 456.017 80.6989 456.111 80.5028C456.205 80.304 456.251 80.0895 456.251 79.8594C456.251 79.6037 456.193 79.3835 456.077 79.1989C455.96 79.0114 455.801 78.8679 455.599 78.7685C455.398 78.6662 455.169 78.6151 454.913 78.6151C454.646 78.6151 454.413 78.669 454.214 78.777C454.016 78.8849 453.862 79.0398 453.754 79.2415C453.646 79.4432 453.592 79.6832 453.592 79.9616H451.841C451.841 79.3906 451.97 78.8949 452.229 78.4744C452.487 78.054 452.849 77.7287 453.315 77.4986C453.781 77.2685 454.318 77.1534 454.926 77.1534C455.551 77.1534 456.095 77.2642 456.558 77.4858C457.024 77.7045 457.386 78.0085 457.645 78.3977C457.903 78.7869 458.033 79.233 458.033 79.7358C458.033 80.0653 457.967 80.3906 457.837 80.7116C457.709 81.0327 457.48 81.3892 457.151 81.7812C456.821 82.1705 456.357 82.6378 455.757 83.1832L454.483 84.4318V84.4915H458.148V86H451.926Z" fill="black"/>
<rect x="186" y="370" width="72" height="53" fill="url(#paint0_diamond_1_2)"/>
<rect x="378" y="370" width="72" height="53" fill="url(#paint1_radial_1_2)"/>
<rect x="172.5" y="476.5" width="287" height="79" stroke="black"/>
<rect x="186" y="497" width="72" height="53" fill="url(#paint2_diamond_1_2)"/>
<rect x="378" y="497" width="72" height="53" fill="url(#paint3_radial_1_2)"/>
<line x1="389.417" y1="143.277" x2="231.417" y2="381.277" stroke="black" stroke-dasharray="2 2"/>
<line x1="225.384" y1="149.68" x2="408.384" y2="369.68" stroke="black" stroke-dasharray="2 2"/>
<path d="M314.5 235L336.584 273.25H292.416L314.5 235Z" fill="#D9D9D9"/>
<path d="M413.5 497L435.584 535.25H391.416L413.5 497Z" fill="#D9D9D9"/>
<rect x="174.5" y="581.5" width="287" height="79" stroke="black"/>
<rect x="188" y="602" width="72" height="53" fill="url(#paint4_diamond_1_2)"/>
<rect x="380" y="602" width="72" height="53" fill="url(#paint5_radial_1_2)"/>
<path d="M224.5 604L246.584 642.25H202.416L224.5 604Z" fill="#D9D9D9"/>
<path d="M177.874 339V330.273H181.368C182.01 330.273 182.546 330.368 182.975 330.558C183.404 330.749 183.726 331.013 183.942 331.351C184.158 331.686 184.266 332.072 184.266 332.51C184.266 332.851 184.198 333.151 184.061 333.409C183.925 333.665 183.737 333.875 183.499 334.04C183.263 334.202 182.993 334.317 182.689 334.385V334.47C183.021 334.484 183.333 334.578 183.622 334.751C183.915 334.925 184.152 335.168 184.334 335.48C184.516 335.79 184.607 336.159 184.607 336.588C184.607 337.051 184.492 337.464 184.262 337.828C184.034 338.189 183.698 338.474 183.252 338.685C182.806 338.895 182.256 339 181.602 339H177.874ZM179.719 337.491H181.223C181.737 337.491 182.112 337.393 182.348 337.197C182.584 336.999 182.702 336.734 182.702 336.405C182.702 336.163 182.644 335.95 182.527 335.766C182.411 335.581 182.244 335.436 182.029 335.331C181.816 335.226 181.561 335.173 181.266 335.173H179.719V337.491ZM179.719 333.925H181.087C181.34 333.925 181.564 333.881 181.76 333.793C181.959 333.702 182.115 333.574 182.229 333.409C182.345 333.244 182.404 333.047 182.404 332.817C182.404 332.501 182.291 332.247 182.067 332.054C181.845 331.861 181.53 331.764 181.121 331.764H179.719V333.925ZM187.64 339.124C187.222 339.124 186.85 339.051 186.523 338.906C186.197 338.759 185.938 338.541 185.748 338.254C185.56 337.964 185.466 337.604 185.466 337.172C185.466 336.808 185.533 336.503 185.667 336.256C185.8 336.009 185.982 335.81 186.212 335.659C186.442 335.509 186.704 335.395 186.996 335.318C187.292 335.241 187.601 335.188 187.925 335.156C188.306 335.116 188.613 335.08 188.846 335.045C189.079 335.009 189.248 334.955 189.353 334.884C189.458 334.812 189.51 334.707 189.51 334.568V334.543C189.51 334.273 189.425 334.064 189.255 333.916C189.087 333.768 188.849 333.695 188.539 333.695C188.212 333.695 187.952 333.767 187.759 333.912C187.566 334.054 187.438 334.233 187.376 334.449L185.697 334.312C185.782 333.915 185.949 333.571 186.199 333.281C186.449 332.989 186.772 332.764 187.167 332.608C187.564 332.449 188.025 332.369 188.547 332.369C188.911 332.369 189.259 332.412 189.591 332.497C189.927 332.582 190.224 332.714 190.482 332.893C190.743 333.072 190.949 333.303 191.1 333.584C191.251 333.862 191.326 334.196 191.326 334.585V339H189.604V338.092H189.553C189.448 338.297 189.307 338.477 189.131 338.634C188.955 338.787 188.743 338.908 188.496 338.996C188.249 339.081 187.964 339.124 187.64 339.124ZM188.16 337.871C188.427 337.871 188.662 337.818 188.867 337.713C189.072 337.605 189.232 337.46 189.349 337.278C189.465 337.097 189.523 336.891 189.523 336.661V335.966C189.466 336.003 189.388 336.037 189.289 336.068C189.192 336.097 189.083 336.124 188.961 336.149C188.839 336.172 188.716 336.193 188.594 336.213C188.472 336.23 188.361 336.246 188.262 336.26C188.049 336.291 187.863 336.341 187.704 336.409C187.545 336.477 187.421 336.57 187.333 336.686C187.245 336.8 187.201 336.942 187.201 337.112C187.201 337.359 187.29 337.548 187.469 337.679C187.651 337.807 187.881 337.871 188.16 337.871ZM195.692 339.128C195.021 339.128 194.444 338.986 193.961 338.702C193.481 338.415 193.112 338.017 192.854 337.509C192.598 337 192.47 336.415 192.47 335.753C192.47 335.082 192.599 334.494 192.858 333.989C193.119 333.48 193.49 333.084 193.97 332.8C194.45 332.513 195.021 332.369 195.683 332.369C196.254 332.369 196.754 332.473 197.183 332.68C197.612 332.888 197.952 333.179 198.202 333.554C198.452 333.929 198.589 334.369 198.615 334.875H196.902C196.854 334.548 196.726 334.286 196.518 334.087C196.314 333.885 196.045 333.784 195.713 333.784C195.432 333.784 195.186 333.861 194.976 334.014C194.768 334.165 194.606 334.385 194.49 334.675C194.373 334.964 194.315 335.315 194.315 335.727C194.315 336.145 194.372 336.5 194.486 336.793C194.602 337.085 194.765 337.308 194.976 337.462C195.186 337.615 195.432 337.692 195.713 337.692C195.92 337.692 196.106 337.649 196.271 337.564C196.439 337.479 196.577 337.355 196.684 337.193C196.795 337.028 196.868 336.831 196.902 336.601H198.615C198.586 337.101 198.45 337.541 198.206 337.922C197.964 338.3 197.631 338.595 197.204 338.808C196.778 339.021 196.274 339.128 195.692 339.128ZM201.422 337.116L201.426 334.939H201.691L203.787 332.455H205.871L203.054 335.744H202.624L201.422 337.116ZM199.777 339V330.273H201.593V339H199.777ZM203.868 339L201.942 336.149L203.152 334.866L205.994 339H203.868ZM209.441 341.591C208.853 341.591 208.349 341.51 207.928 341.348C207.51 341.189 207.178 340.972 206.931 340.696C206.684 340.42 206.523 340.111 206.449 339.767L208.128 339.541C208.18 339.672 208.26 339.794 208.371 339.908C208.482 340.021 208.628 340.112 208.81 340.18C208.995 340.251 209.219 340.287 209.483 340.287C209.878 340.287 210.204 340.19 210.459 339.997C210.718 339.807 210.847 339.487 210.847 339.038V337.841H210.77C210.691 338.023 210.572 338.195 210.412 338.357C210.253 338.518 210.049 338.651 209.799 338.753C209.549 338.855 209.251 338.906 208.904 338.906C208.412 338.906 207.965 338.793 207.562 338.565C207.161 338.335 206.841 337.984 206.603 337.513C206.367 337.038 206.249 336.439 206.249 335.714C206.249 334.973 206.37 334.354 206.611 333.857C206.853 333.359 207.174 332.987 207.574 332.74C207.978 332.493 208.42 332.369 208.9 332.369C209.266 332.369 209.573 332.432 209.82 332.557C210.067 332.679 210.266 332.832 210.417 333.017C210.57 333.199 210.688 333.378 210.77 333.554H210.839V332.455H212.641V339.064C212.641 339.621 212.505 340.087 212.232 340.462C211.959 340.837 211.581 341.118 211.099 341.305C210.618 341.496 210.066 341.591 209.441 341.591ZM209.479 337.543C209.772 337.543 210.019 337.47 210.221 337.325C210.425 337.178 210.581 336.967 210.689 336.695C210.8 336.419 210.856 336.089 210.856 335.706C210.856 335.322 210.802 334.99 210.694 334.709C210.586 334.425 210.43 334.205 210.225 334.048C210.02 333.892 209.772 333.814 209.479 333.814C209.181 333.814 208.93 333.895 208.725 334.057C208.52 334.216 208.366 334.437 208.26 334.722C208.155 335.006 208.103 335.334 208.103 335.706C208.103 336.084 208.155 336.411 208.26 336.686C208.368 336.959 208.523 337.17 208.725 337.321C208.93 337.469 209.181 337.543 209.479 337.543ZM214.086 339V332.455H215.846V333.597H215.914C216.033 333.19 216.233 332.884 216.515 332.676C216.796 332.466 217.12 332.361 217.486 332.361C217.577 332.361 217.675 332.366 217.78 332.378C217.885 332.389 217.978 332.405 218.057 332.425V334.036C217.972 334.01 217.854 333.987 217.704 333.967C217.553 333.947 217.415 333.938 217.29 333.938C217.023 333.938 216.785 333.996 216.574 334.112C216.367 334.226 216.202 334.385 216.08 334.589C215.961 334.794 215.901 335.03 215.901 335.297V339H214.086ZM221.649 339.128C220.987 339.128 220.414 338.987 219.931 338.706C219.451 338.422 219.08 338.027 218.819 337.521C218.558 337.013 218.427 336.423 218.427 335.753C218.427 335.077 218.558 334.486 218.819 333.98C219.08 333.472 219.451 333.077 219.931 332.795C220.414 332.511 220.987 332.369 221.649 332.369C222.311 332.369 222.882 332.511 223.362 332.795C223.845 333.077 224.217 333.472 224.478 333.98C224.74 334.486 224.87 335.077 224.87 335.753C224.87 336.423 224.74 337.013 224.478 337.521C224.217 338.027 223.845 338.422 223.362 338.706C222.882 338.987 222.311 339.128 221.649 339.128ZM221.657 337.722C221.958 337.722 222.21 337.636 222.411 337.466C222.613 337.293 222.765 337.057 222.867 336.759C222.972 336.46 223.025 336.121 223.025 335.74C223.025 335.359 222.972 335.02 222.867 334.722C222.765 334.423 222.613 334.187 222.411 334.014C222.21 333.841 221.958 333.754 221.657 333.754C221.353 333.754 221.097 333.841 220.89 334.014C220.686 334.187 220.531 334.423 220.426 334.722C220.323 335.02 220.272 335.359 220.272 335.74C220.272 336.121 220.323 336.46 220.426 336.759C220.531 337.057 220.686 337.293 220.89 337.466C221.097 337.636 221.353 337.722 221.657 337.722ZM230.248 336.213V332.455H232.063V339H230.32V337.811H230.252C230.105 338.195 229.859 338.503 229.515 338.736C229.174 338.969 228.758 339.085 228.267 339.085C227.829 339.085 227.444 338.986 227.112 338.787C226.779 338.588 226.519 338.305 226.332 337.939C226.147 337.572 226.053 337.134 226.051 336.622V332.455H227.866V336.298C227.869 336.685 227.972 336.99 228.177 337.214C228.382 337.439 228.656 337.551 228.999 337.551C229.218 337.551 229.423 337.501 229.613 337.402C229.803 337.3 229.957 337.149 230.073 336.95C230.193 336.751 230.251 336.506 230.248 336.213ZM235.331 335.216V339H233.515V332.455H235.246V333.609H235.322C235.467 333.229 235.71 332.928 236.051 332.706C236.392 332.482 236.805 332.369 237.291 332.369C237.746 332.369 238.142 332.469 238.48 332.668C238.818 332.866 239.081 333.151 239.268 333.52C239.456 333.886 239.55 334.324 239.55 334.832V339H237.734V335.156C237.737 334.756 237.635 334.443 237.427 334.219C237.22 333.991 236.934 333.878 236.571 333.878C236.327 333.878 236.111 333.93 235.923 334.036C235.738 334.141 235.594 334.294 235.488 334.496C235.386 334.695 235.334 334.935 235.331 335.216ZM243.392 339.107C242.895 339.107 242.445 338.979 242.041 338.723C241.641 338.464 241.323 338.085 241.087 337.585C240.854 337.082 240.737 336.466 240.737 335.736C240.737 334.986 240.858 334.362 241.1 333.865C241.341 333.365 241.662 332.991 242.063 332.744C242.466 332.494 242.908 332.369 243.388 332.369C243.754 332.369 244.06 332.432 244.304 332.557C244.551 332.679 244.75 332.832 244.901 333.017C245.054 333.199 245.171 333.378 245.25 333.554H245.306V330.273H247.117V339H245.327V337.952H245.25C245.165 338.134 245.044 338.314 244.888 338.493C244.735 338.669 244.534 338.815 244.287 338.932C244.043 339.048 243.744 339.107 243.392 339.107ZM243.968 337.662C244.26 337.662 244.507 337.582 244.709 337.423C244.914 337.261 245.07 337.036 245.178 336.746C245.289 336.456 245.344 336.116 245.344 335.727C245.344 335.338 245.29 335 245.182 334.713C245.074 334.426 244.918 334.205 244.713 334.048C244.509 333.892 244.26 333.814 243.968 333.814C243.669 333.814 243.418 333.895 243.213 334.057C243.009 334.219 242.854 334.443 242.749 334.73C242.644 335.017 242.591 335.349 242.591 335.727C242.591 336.108 242.644 336.445 242.749 336.737C242.857 337.027 243.012 337.254 243.213 337.419C243.418 337.581 243.669 337.662 243.968 337.662Z" fill="black"/>
<path d="M354.874 252.636C354.874 253.588 354.694 254.398 354.333 255.065C353.975 255.733 353.486 256.243 352.867 256.595C352.251 256.945 351.557 257.119 350.787 257.119C350.012 257.119 349.316 256.943 348.699 256.591C348.083 256.239 347.596 255.729 347.238 255.061C346.88 254.393 346.701 253.585 346.701 252.636C346.701 251.685 346.88 250.875 347.238 250.207C347.596 249.54 348.083 249.031 348.699 248.682C349.316 248.33 350.012 248.153 350.787 248.153C351.557 248.153 352.251 248.33 352.867 248.682C353.486 249.031 353.975 249.54 354.333 250.207C354.694 250.875 354.874 251.685 354.874 252.636ZM353.003 252.636C353.003 252.02 352.911 251.5 352.726 251.077C352.545 250.653 352.287 250.332 351.955 250.114C351.623 249.895 351.233 249.786 350.787 249.786C350.341 249.786 349.952 249.895 349.62 250.114C349.287 250.332 349.029 250.653 348.844 251.077C348.662 251.5 348.572 252.02 348.572 252.636C348.572 253.253 348.662 253.773 348.844 254.196C349.029 254.619 349.287 254.94 349.62 255.159C349.952 255.378 350.341 255.487 350.787 255.487C351.233 255.487 351.623 255.378 351.955 255.159C352.287 254.94 352.545 254.619 352.726 254.196C352.911 253.773 353.003 253.253 353.003 252.636ZM356.241 257V248.273H358.056V251.554H358.112C358.191 251.378 358.306 251.199 358.457 251.017C358.61 250.832 358.809 250.679 359.053 250.557C359.301 250.432 359.607 250.369 359.974 250.369C360.451 250.369 360.892 250.494 361.295 250.744C361.698 250.991 362.021 251.365 362.262 251.865C362.504 252.362 362.624 252.986 362.624 253.736C362.624 254.466 362.507 255.082 362.271 255.585C362.038 256.085 361.72 256.464 361.316 256.723C360.916 256.979 360.467 257.107 359.97 257.107C359.617 257.107 359.318 257.048 359.07 256.932C358.826 256.815 358.626 256.669 358.47 256.493C358.313 256.314 358.194 256.134 358.112 255.952H358.031V257H356.241ZM358.018 253.727C358.018 254.116 358.072 254.456 358.18 254.746C358.288 255.036 358.444 255.261 358.649 255.423C358.853 255.582 359.102 255.662 359.394 255.662C359.69 255.662 359.94 255.581 360.144 255.419C360.349 255.254 360.504 255.027 360.609 254.737C360.717 254.445 360.771 254.108 360.771 253.727C360.771 253.349 360.718 253.017 360.613 252.73C360.508 252.443 360.353 252.219 360.149 252.057C359.944 251.895 359.693 251.814 359.394 251.814C359.099 251.814 358.849 251.892 358.644 252.048C358.443 252.205 358.288 252.426 358.18 252.713C358.072 253 358.018 253.338 358.018 253.727ZM363.836 250.455H365.651V257.324C365.651 257.83 365.552 258.239 365.353 258.551C365.154 258.864 364.868 259.092 364.496 259.237C364.127 259.382 363.685 259.455 363.171 259.455C363.108 259.455 363.049 259.453 362.992 259.45C362.932 259.45 362.87 259.449 362.805 259.446V258.027C362.853 258.03 362.895 258.031 362.932 258.031C362.966 258.034 363.003 258.036 363.043 258.036C363.336 258.036 363.54 257.973 363.657 257.848C363.776 257.726 363.836 257.541 363.836 257.294V250.455ZM364.739 249.611C364.472 249.611 364.242 249.521 364.049 249.342C363.856 249.161 363.759 248.943 363.759 248.69C363.759 248.44 363.856 248.226 364.049 248.047C364.242 247.865 364.472 247.774 364.739 247.774C365.012 247.774 365.243 247.865 365.434 248.047C365.627 248.226 365.724 248.44 365.724 248.69C365.724 248.943 365.627 249.161 365.434 249.342C365.243 249.521 365.012 249.611 364.739 249.611ZM370.088 257.128C369.415 257.128 368.835 256.991 368.35 256.719C367.867 256.443 367.494 256.054 367.233 255.551C366.972 255.045 366.841 254.447 366.841 253.757C366.841 253.084 366.972 252.493 367.233 251.984C367.494 251.476 367.862 251.08 368.337 250.795C368.814 250.511 369.374 250.369 370.016 250.369C370.448 250.369 370.85 250.439 371.222 250.578C371.597 250.714 371.923 250.92 372.202 251.196C372.483 251.472 372.702 251.818 372.858 252.236C373.014 252.651 373.093 253.136 373.093 253.693V254.192H367.566V253.067H371.384C371.384 252.805 371.327 252.574 371.213 252.372C371.1 252.17 370.942 252.013 370.74 251.899C370.541 251.783 370.31 251.724 370.046 251.724C369.77 251.724 369.526 251.788 369.313 251.916C369.102 252.041 368.938 252.21 368.818 252.423C368.699 252.634 368.638 252.868 368.635 253.126V254.196C368.635 254.52 368.695 254.8 368.814 255.036C368.936 255.271 369.108 255.453 369.33 255.581C369.551 255.709 369.814 255.773 370.118 255.773C370.32 255.773 370.504 255.744 370.672 255.688C370.84 255.631 370.983 255.545 371.102 255.432C371.222 255.318 371.313 255.179 371.375 255.014L373.054 255.125C372.969 255.528 372.794 255.881 372.53 256.182C372.269 256.48 371.931 256.713 371.516 256.881C371.104 257.045 370.628 257.128 370.088 257.128ZM377.235 257.128C376.564 257.128 375.987 256.986 375.504 256.702C375.024 256.415 374.655 256.017 374.396 255.509C374.141 255 374.013 254.415 374.013 253.753C374.013 253.082 374.142 252.494 374.401 251.989C374.662 251.48 375.033 251.084 375.513 250.8C375.993 250.513 376.564 250.369 377.226 250.369C377.797 250.369 378.297 250.473 378.726 250.68C379.155 250.888 379.494 251.179 379.744 251.554C379.994 251.929 380.132 252.369 380.158 252.875H378.445C378.396 252.548 378.269 252.286 378.061 252.087C377.857 251.885 377.588 251.784 377.256 251.784C376.975 251.784 376.729 251.861 376.519 252.014C376.311 252.165 376.149 252.385 376.033 252.675C375.916 252.964 375.858 253.315 375.858 253.727C375.858 254.145 375.915 254.5 376.029 254.793C376.145 255.085 376.308 255.308 376.519 255.462C376.729 255.615 376.975 255.692 377.256 255.692C377.463 255.692 377.649 255.649 377.814 255.564C377.982 255.479 378.119 255.355 378.227 255.193C378.338 255.028 378.411 254.831 378.445 254.601H380.158C380.129 255.101 379.993 255.541 379.749 255.922C379.507 256.3 379.173 256.595 378.747 256.808C378.321 257.021 377.817 257.128 377.235 257.128ZM384.802 250.455V251.818H380.86V250.455H384.802ZM381.755 248.886H383.57V254.989C383.57 255.156 383.596 255.287 383.647 255.381C383.698 255.472 383.769 255.536 383.86 255.572C383.954 255.609 384.062 255.628 384.184 255.628C384.269 255.628 384.354 255.621 384.439 255.607C384.525 255.589 384.59 255.577 384.635 255.568L384.921 256.919C384.83 256.947 384.702 256.98 384.537 257.017C384.373 257.057 384.172 257.081 383.937 257.089C383.499 257.107 383.116 257.048 382.786 256.915C382.459 256.781 382.205 256.574 382.023 256.293C381.841 256.011 381.752 255.656 381.755 255.227V248.886ZM388.796 257V248.273H392.29C392.932 248.273 393.468 248.368 393.896 248.558C394.325 248.749 394.648 249.013 394.864 249.351C395.08 249.686 395.188 250.072 395.188 250.51C395.188 250.851 395.119 251.151 394.983 251.409C394.847 251.665 394.659 251.875 394.421 252.04C394.185 252.202 393.915 252.317 393.611 252.385V252.47C393.943 252.484 394.254 252.578 394.544 252.751C394.837 252.925 395.074 253.168 395.256 253.48C395.438 253.79 395.529 254.159 395.529 254.588C395.529 255.051 395.414 255.464 395.183 255.828C394.956 256.189 394.619 256.474 394.173 256.685C393.727 256.895 393.178 257 392.524 257H388.796ZM390.641 255.491H392.145C392.659 255.491 393.034 255.393 393.27 255.197C393.506 254.999 393.624 254.734 393.624 254.405C393.624 254.163 393.566 253.95 393.449 253.766C393.333 253.581 393.166 253.436 392.95 253.331C392.737 253.226 392.483 253.173 392.188 253.173H390.641V255.491ZM390.641 251.925H392.009C392.262 251.925 392.486 251.881 392.682 251.793C392.881 251.702 393.037 251.574 393.151 251.409C393.267 251.244 393.325 251.047 393.325 250.817C393.325 250.501 393.213 250.247 392.989 250.054C392.767 249.861 392.452 249.764 392.043 249.764H390.641V251.925ZM399.678 257.128C399.005 257.128 398.425 256.991 397.939 256.719C397.456 256.443 397.084 256.054 396.823 255.551C396.562 255.045 396.431 254.447 396.431 253.757C396.431 253.084 396.562 252.493 396.823 251.984C397.084 251.476 397.452 251.08 397.927 250.795C398.404 250.511 398.964 250.369 399.606 250.369C400.037 250.369 400.439 250.439 400.812 250.578C401.187 250.714 401.513 250.92 401.792 251.196C402.073 251.472 402.292 251.818 402.448 252.236C402.604 252.651 402.682 253.136 402.682 253.693V254.192H397.155V253.067H400.974C400.974 252.805 400.917 252.574 400.803 252.372C400.689 252.17 400.532 252.013 400.33 251.899C400.131 251.783 399.9 251.724 399.635 251.724C399.36 251.724 399.116 251.788 398.903 251.916C398.692 252.041 398.528 252.21 398.408 252.423C398.289 252.634 398.228 252.868 398.225 253.126V254.196C398.225 254.52 398.285 254.8 398.404 255.036C398.526 255.271 398.698 255.453 398.92 255.581C399.141 255.709 399.404 255.773 399.708 255.773C399.91 255.773 400.094 255.744 400.262 255.688C400.43 255.631 400.573 255.545 400.692 255.432C400.812 255.318 400.903 255.179 400.965 255.014L402.644 255.125C402.559 255.528 402.384 255.881 402.12 256.182C401.858 256.48 401.52 256.713 401.106 256.881C400.694 257.045 400.218 257.128 399.678 257.128ZM403.867 257V250.455H405.682V257H403.867ZM404.779 249.611C404.509 249.611 404.278 249.521 404.084 249.342C403.894 249.161 403.799 248.943 403.799 248.69C403.799 248.44 403.894 248.226 404.084 248.047C404.278 247.865 404.509 247.774 404.779 247.774C405.049 247.774 405.279 247.865 405.469 248.047C405.662 248.226 405.759 248.44 405.759 248.69C405.759 248.943 405.662 249.161 405.469 249.342C405.279 249.521 405.049 249.611 404.779 249.611ZM408.952 253.216V257H407.137V250.455H408.867V251.609H408.943C409.088 251.229 409.331 250.928 409.672 250.706C410.013 250.482 410.426 250.369 410.912 250.369C411.367 250.369 411.763 250.469 412.101 250.668C412.439 250.866 412.702 251.151 412.889 251.52C413.077 251.886 413.171 252.324 413.171 252.832V257H411.355V253.156C411.358 252.756 411.256 252.443 411.048 252.219C410.841 251.991 410.556 251.878 410.192 251.878C409.948 251.878 409.732 251.93 409.544 252.036C409.36 252.141 409.215 252.294 409.11 252.496C409.007 252.695 408.955 252.935 408.952 253.216ZM417.55 259.591C416.962 259.591 416.458 259.51 416.037 259.348C415.62 259.189 415.287 258.972 415.04 258.696C414.793 258.42 414.633 258.111 414.559 257.767L416.238 257.541C416.289 257.672 416.37 257.794 416.481 257.908C416.591 258.021 416.738 258.112 416.92 258.18C417.104 258.251 417.329 258.287 417.593 258.287C417.988 258.287 418.313 258.19 418.569 257.997C418.827 257.807 418.956 257.487 418.956 257.038V255.841H418.88C418.8 256.023 418.681 256.195 418.522 256.357C418.363 256.518 418.158 256.651 417.908 256.753C417.658 256.855 417.36 256.906 417.013 256.906C416.522 256.906 416.074 256.793 415.671 256.565C415.27 256.335 414.951 255.984 414.712 255.513C414.476 255.038 414.358 254.439 414.358 253.714C414.358 252.973 414.479 252.354 414.721 251.857C414.962 251.359 415.283 250.987 415.684 250.74C416.087 250.493 416.529 250.369 417.009 250.369C417.376 250.369 417.682 250.432 417.93 250.557C418.177 250.679 418.376 250.832 418.526 251.017C418.68 251.199 418.797 251.378 418.88 251.554H418.948V250.455H420.751V257.064C420.751 257.621 420.614 258.087 420.341 258.462C420.069 258.837 419.691 259.118 419.208 259.305C418.728 259.496 418.175 259.591 417.55 259.591ZM417.589 255.543C417.881 255.543 418.128 255.47 418.33 255.325C418.535 255.178 418.691 254.967 418.799 254.695C418.91 254.419 418.965 254.089 418.965 253.706C418.965 253.322 418.911 252.99 418.803 252.709C418.695 252.425 418.539 252.205 418.334 252.048C418.13 251.892 417.881 251.814 417.589 251.814C417.29 251.814 417.039 251.895 416.834 252.057C416.63 252.216 416.475 252.437 416.37 252.722C416.265 253.006 416.212 253.334 416.212 253.706C416.212 254.084 416.265 254.411 416.37 254.686C416.478 254.959 416.633 255.17 416.834 255.321C417.039 255.469 417.29 255.543 417.589 255.543ZM433.026 252.636C433.026 253.588 432.846 254.398 432.485 255.065C432.127 255.733 431.639 256.243 431.019 256.595C430.403 256.945 429.71 257.119 428.94 257.119C428.164 257.119 427.468 256.943 426.852 256.591C426.235 256.239 425.748 255.729 425.39 255.061C425.032 254.393 424.853 253.585 424.853 252.636C424.853 251.685 425.032 250.875 425.39 250.207C425.748 249.54 426.235 249.031 426.852 248.682C427.468 248.33 428.164 248.153 428.94 248.153C429.71 248.153 430.403 248.33 431.019 248.682C431.639 249.031 432.127 249.54 432.485 250.207C432.846 250.875 433.026 251.685 433.026 252.636ZM431.156 252.636C431.156 252.02 431.063 251.5 430.879 251.077C430.697 250.653 430.44 250.332 430.107 250.114C429.775 249.895 429.386 249.786 428.94 249.786C428.494 249.786 428.105 249.895 427.772 250.114C427.44 250.332 427.181 250.653 426.997 251.077C426.815 251.5 426.724 252.02 426.724 252.636C426.724 253.253 426.815 253.773 426.997 254.196C427.181 254.619 427.44 254.94 427.772 255.159C428.105 255.378 428.494 255.487 428.94 255.487C429.386 255.487 429.775 255.378 430.107 255.159C430.44 254.94 430.697 254.619 430.879 254.196C431.063 253.773 431.156 253.253 431.156 252.636ZM434.393 257V248.273H436.209V251.554H436.264C436.344 251.378 436.459 251.199 436.609 251.017C436.763 250.832 436.961 250.679 437.206 250.557C437.453 250.432 437.76 250.369 438.126 250.369C438.604 250.369 439.044 250.494 439.447 250.744C439.851 250.991 440.173 251.365 440.415 251.865C440.656 252.362 440.777 252.986 440.777 253.736C440.777 254.466 440.659 255.082 440.423 255.585C440.19 256.085 439.872 256.464 439.469 256.723C439.068 256.979 438.619 257.107 438.122 257.107C437.77 257.107 437.47 257.048 437.223 256.932C436.979 256.815 436.778 256.669 436.622 256.493C436.466 256.314 436.346 256.134 436.264 255.952H436.183V257H434.393ZM436.17 253.727C436.17 254.116 436.224 254.456 436.332 254.746C436.44 255.036 436.596 255.261 436.801 255.423C437.006 255.582 437.254 255.662 437.547 255.662C437.842 255.662 438.092 255.581 438.297 255.419C438.501 255.254 438.656 255.027 438.761 254.737C438.869 254.445 438.923 254.108 438.923 253.727C438.923 253.349 438.871 253.017 438.765 252.73C438.66 252.443 438.506 252.219 438.301 252.057C438.096 251.895 437.845 251.814 437.547 251.814C437.251 251.814 437.001 251.892 436.797 252.048C436.595 252.205 436.44 252.426 436.332 252.713C436.224 253 436.17 253.338 436.17 253.727ZM447.434 252.321L445.772 252.423C445.744 252.281 445.683 252.153 445.589 252.04C445.495 251.923 445.372 251.831 445.218 251.763C445.068 251.692 444.887 251.656 444.677 251.656C444.396 251.656 444.159 251.716 443.965 251.835C443.772 251.952 443.676 252.108 443.676 252.304C443.676 252.46 443.738 252.592 443.863 252.7C443.988 252.808 444.203 252.895 444.507 252.96L445.691 253.199C446.328 253.33 446.802 253.54 447.115 253.83C447.427 254.119 447.583 254.5 447.583 254.972C447.583 255.401 447.457 255.777 447.204 256.101C446.954 256.425 446.61 256.678 446.173 256.859C445.738 257.038 445.237 257.128 444.669 257.128C443.802 257.128 443.112 256.947 442.597 256.587C442.086 256.223 441.786 255.729 441.698 255.104L443.484 255.01C443.538 255.274 443.669 255.476 443.876 255.615C444.083 255.751 444.349 255.82 444.673 255.82C444.991 255.82 445.247 255.759 445.44 255.636C445.636 255.511 445.735 255.351 445.738 255.155C445.735 254.99 445.666 254.855 445.529 254.75C445.393 254.642 445.183 254.56 444.899 254.503L443.765 254.277C443.126 254.149 442.65 253.928 442.338 253.612C442.028 253.297 441.873 252.895 441.873 252.406C441.873 251.986 441.987 251.624 442.214 251.32C442.444 251.016 442.767 250.781 443.181 250.616C443.599 250.452 444.088 250.369 444.647 250.369C445.474 250.369 446.124 250.544 446.599 250.893C447.076 251.243 447.355 251.719 447.434 252.321ZM451.709 257.128C451.036 257.128 450.456 256.991 449.971 256.719C449.488 256.443 449.116 256.054 448.854 255.551C448.593 255.045 448.462 254.447 448.462 253.757C448.462 253.084 448.593 252.493 448.854 251.984C449.116 251.476 449.483 251.08 449.958 250.795C450.435 250.511 450.995 250.369 451.637 250.369C452.069 250.369 452.471 250.439 452.843 250.578C453.218 250.714 453.545 250.92 453.823 251.196C454.104 251.472 454.323 251.818 454.479 252.236C454.635 252.651 454.714 253.136 454.714 253.693V254.192H449.187V253.067H453.005C453.005 252.805 452.948 252.574 452.834 252.372C452.721 252.17 452.563 252.013 452.361 251.899C452.162 251.783 451.931 251.724 451.667 251.724C451.391 251.724 451.147 251.788 450.934 251.916C450.724 252.041 450.559 252.21 450.439 252.423C450.32 252.634 450.259 252.868 450.256 253.126V254.196C450.256 254.52 450.316 254.8 450.435 255.036C450.557 255.271 450.729 255.453 450.951 255.581C451.172 255.709 451.435 255.773 451.739 255.773C451.941 255.773 452.126 255.744 452.293 255.688C452.461 255.631 452.604 255.545 452.724 255.432C452.843 255.318 452.934 255.179 452.996 255.014L454.675 255.125C454.59 255.528 454.415 255.881 454.151 256.182C453.89 256.48 453.552 256.713 453.137 256.881C452.725 257.045 452.249 257.128 451.709 257.128ZM455.898 257V250.455H457.658V251.597H457.726C457.846 251.19 458.046 250.884 458.327 250.676C458.608 250.466 458.932 250.361 459.299 250.361C459.39 250.361 459.488 250.366 459.593 250.378C459.698 250.389 459.79 250.405 459.87 250.425V252.036C459.785 252.01 459.667 251.987 459.516 251.967C459.366 251.947 459.228 251.938 459.103 251.938C458.836 251.938 458.597 251.996 458.387 252.112C458.18 252.226 458.015 252.385 457.893 252.589C457.773 252.794 457.714 253.03 457.714 253.297V257H455.898ZM467.11 250.455L464.822 257H462.776L460.488 250.455H462.405L463.765 255.138H463.833L465.188 250.455H467.11ZM470.811 257.128C470.138 257.128 469.558 256.991 469.072 256.719C468.589 256.443 468.217 256.054 467.956 255.551C467.694 255.045 467.564 254.447 467.564 253.757C467.564 253.084 467.694 252.493 467.956 251.984C468.217 251.476 468.585 251.08 469.059 250.795C469.537 250.511 470.096 250.369 470.738 250.369C471.17 250.369 471.572 250.439 471.944 250.578C472.319 250.714 472.646 250.92 472.925 251.196C473.206 251.472 473.425 251.818 473.581 252.236C473.737 252.651 473.815 253.136 473.815 253.693V254.192H468.288V253.067H472.106C472.106 252.805 472.05 252.574 471.936 252.372C471.822 252.17 471.665 252.013 471.463 251.899C471.264 251.783 471.032 251.724 470.768 251.724C470.493 251.724 470.248 251.788 470.035 251.916C469.825 252.041 469.66 252.21 469.541 252.423C469.422 252.634 469.361 252.868 469.358 253.126V254.196C469.358 254.52 469.417 254.8 469.537 255.036C469.659 255.271 469.831 255.453 470.052 255.581C470.274 255.709 470.537 255.773 470.841 255.773C471.042 255.773 471.227 255.744 471.395 255.688C471.562 255.631 471.706 255.545 471.825 255.432C471.944 255.318 472.035 255.179 472.098 255.014L473.777 255.125C473.692 255.528 473.517 255.881 473.253 256.182C472.991 256.48 472.653 256.713 472.238 256.881C471.827 257.045 471.351 257.128 470.811 257.128ZM477.412 257.107C476.915 257.107 476.464 256.979 476.061 256.723C475.66 256.464 475.342 256.085 475.106 255.585C474.873 255.082 474.757 254.466 474.757 253.736C474.757 252.986 474.878 252.362 475.119 251.865C475.361 251.365 475.682 250.991 476.082 250.744C476.486 250.494 476.927 250.369 477.407 250.369C477.774 250.369 478.079 250.432 478.324 250.557C478.571 250.679 478.77 250.832 478.92 251.017C479.074 251.199 479.19 251.378 479.27 251.554H479.325V248.273H481.136V257H479.346V255.952H479.27C479.184 256.134 479.064 256.314 478.907 256.493C478.754 256.669 478.554 256.815 478.307 256.932C478.062 257.048 477.764 257.107 477.412 257.107ZM477.987 255.662C478.28 255.662 478.527 255.582 478.729 255.423C478.933 255.261 479.089 255.036 479.197 254.746C479.308 254.456 479.363 254.116 479.363 253.727C479.363 253.338 479.309 253 479.202 252.713C479.094 252.426 478.937 252.205 478.733 252.048C478.528 251.892 478.28 251.814 477.987 251.814C477.689 251.814 477.437 251.895 477.233 252.057C477.028 252.219 476.873 252.443 476.768 252.73C476.663 253.017 476.611 253.349 476.611 253.727C476.611 254.108 476.663 254.445 476.768 254.737C476.876 255.027 477.031 255.254 477.233 255.419C477.437 255.581 477.689 255.662 477.987 255.662Z" fill="black"/>
<path d="M176.825 469V460.273H180.268C180.93 460.273 181.494 460.399 181.96 460.652C182.426 460.902 182.781 461.25 183.025 461.696C183.272 462.139 183.396 462.651 183.396 463.23C183.396 463.81 183.271 464.321 183.021 464.764C182.771 465.207 182.409 465.553 181.934 465.8C181.463 466.047 180.892 466.17 180.221 466.17H178.027V464.692H179.923C180.278 464.692 180.571 464.631 180.801 464.509C181.034 464.384 181.207 464.212 181.321 463.993C181.437 463.771 181.495 463.517 181.495 463.23C181.495 462.94 181.437 462.687 181.321 462.472C181.207 462.253 181.034 462.084 180.801 461.964C180.568 461.842 180.272 461.781 179.914 461.781H178.67V469H176.825ZM187.438 469.128C186.765 469.128 186.185 468.991 185.699 468.719C185.216 468.443 184.844 468.054 184.583 467.551C184.321 467.045 184.191 466.447 184.191 465.757C184.191 465.084 184.321 464.493 184.583 463.984C184.844 463.476 185.212 463.08 185.686 462.795C186.164 462.511 186.723 462.369 187.365 462.369C187.797 462.369 188.199 462.439 188.571 462.578C188.946 462.714 189.273 462.92 189.551 463.196C189.833 463.472 190.051 463.818 190.208 464.236C190.364 464.651 190.442 465.136 190.442 465.693V466.192H184.915V465.067H188.733C188.733 464.805 188.676 464.574 188.563 464.372C188.449 464.17 188.292 464.013 188.09 463.899C187.891 463.783 187.659 463.724 187.395 463.724C187.12 463.724 186.875 463.788 186.662 463.916C186.452 464.041 186.287 464.21 186.168 464.423C186.049 464.634 185.988 464.868 185.985 465.126V466.196C185.985 466.52 186.044 466.8 186.164 467.036C186.286 467.271 186.458 467.453 186.679 467.581C186.901 467.709 187.164 467.773 187.468 467.773C187.669 467.773 187.854 467.744 188.022 467.688C188.189 467.631 188.333 467.545 188.452 467.432C188.571 467.318 188.662 467.179 188.725 467.014L190.404 467.125C190.319 467.528 190.144 467.881 189.88 468.182C189.618 468.48 189.28 468.713 188.865 468.881C188.453 469.045 187.978 469.128 187.438 469.128ZM191.627 469V462.455H193.387V463.597H193.455C193.574 463.19 193.775 462.884 194.056 462.676C194.337 462.466 194.661 462.361 195.027 462.361C195.118 462.361 195.216 462.366 195.321 462.378C195.426 462.389 195.519 462.405 195.598 462.425V464.036C195.513 464.01 195.395 463.987 195.245 463.967C195.094 463.947 194.956 463.938 194.831 463.938C194.564 463.938 194.326 463.996 194.115 464.112C193.908 464.226 193.743 464.385 193.621 464.589C193.502 464.794 193.442 465.03 193.442 465.297V469H191.627ZM201.983 464.321L200.321 464.423C200.293 464.281 200.232 464.153 200.138 464.04C200.044 463.923 199.92 463.831 199.767 463.763C199.616 463.692 199.436 463.656 199.226 463.656C198.945 463.656 198.707 463.716 198.514 463.835C198.321 463.952 198.224 464.108 198.224 464.304C198.224 464.46 198.287 464.592 198.412 464.7C198.537 464.808 198.751 464.895 199.055 464.96L200.24 465.199C200.876 465.33 201.351 465.54 201.663 465.83C201.976 466.119 202.132 466.5 202.132 466.972C202.132 467.401 202.006 467.777 201.753 468.101C201.503 468.425 201.159 468.678 200.722 468.859C200.287 469.038 199.786 469.128 199.217 469.128C198.351 469.128 197.661 468.947 197.146 468.587C196.635 468.223 196.335 467.729 196.247 467.104L198.033 467.01C198.087 467.274 198.217 467.476 198.425 467.615C198.632 467.751 198.898 467.82 199.222 467.82C199.54 467.82 199.795 467.759 199.989 467.636C200.185 467.511 200.284 467.351 200.287 467.155C200.284 466.99 200.214 466.855 200.078 466.75C199.942 466.642 199.732 466.56 199.447 466.503L198.314 466.277C197.675 466.149 197.199 465.928 196.886 465.612C196.577 465.297 196.422 464.895 196.422 464.406C196.422 463.986 196.536 463.624 196.763 463.32C196.993 463.016 197.315 462.781 197.73 462.616C198.148 462.452 198.636 462.369 199.196 462.369C200.023 462.369 200.673 462.544 201.148 462.893C201.625 463.243 201.903 463.719 201.983 464.321ZM203.275 471.455V462.455H205.065V463.554H205.146C205.225 463.378 205.341 463.199 205.491 463.017C205.645 462.832 205.843 462.679 206.088 462.557C206.335 462.432 206.642 462.369 207.008 462.369C207.485 462.369 207.926 462.494 208.329 462.744C208.733 462.991 209.055 463.365 209.297 463.865C209.538 464.362 209.659 464.986 209.659 465.736C209.659 466.466 209.541 467.082 209.305 467.585C209.072 468.085 208.754 468.464 208.35 468.723C207.95 468.979 207.501 469.107 207.004 469.107C206.652 469.107 206.352 469.048 206.105 468.932C205.86 468.815 205.66 468.669 205.504 468.493C205.348 468.314 205.228 468.134 205.146 467.952H205.091V471.455H203.275ZM205.052 465.727C205.052 466.116 205.106 466.456 205.214 466.746C205.322 467.036 205.478 467.261 205.683 467.423C205.887 467.582 206.136 467.662 206.429 467.662C206.724 467.662 206.974 467.581 207.179 467.419C207.383 467.254 207.538 467.027 207.643 466.737C207.751 466.445 207.805 466.108 207.805 465.727C207.805 465.349 207.752 465.017 207.647 464.73C207.542 464.443 207.387 464.219 207.183 464.057C206.978 463.895 206.727 463.814 206.429 463.814C206.133 463.814 205.883 463.892 205.679 464.048C205.477 464.205 205.322 464.426 205.214 464.713C205.106 465 205.052 465.338 205.052 465.727ZM213.852 469.128C213.179 469.128 212.599 468.991 212.113 468.719C211.63 468.443 211.258 468.054 210.997 467.551C210.735 467.045 210.605 466.447 210.605 465.757C210.605 465.084 210.735 464.493 210.997 463.984C211.258 463.476 211.626 463.08 212.1 462.795C212.578 462.511 213.137 462.369 213.779 462.369C214.211 462.369 214.613 462.439 214.985 462.578C215.36 462.714 215.687 462.92 215.966 463.196C216.247 463.472 216.466 463.818 216.622 464.236C216.778 464.651 216.856 465.136 216.856 465.693V466.192H211.329V465.067H215.147C215.147 464.805 215.091 464.574 214.977 464.372C214.863 464.17 214.706 464.013 214.504 463.899C214.305 463.783 214.074 463.724 213.809 463.724C213.534 463.724 213.289 463.788 213.076 463.916C212.866 464.041 212.701 464.21 212.582 464.423C212.463 464.634 212.402 464.868 212.399 465.126V466.196C212.399 466.52 212.458 466.8 212.578 467.036C212.7 467.271 212.872 467.453 213.093 467.581C213.315 467.709 213.578 467.773 213.882 467.773C214.083 467.773 214.268 467.744 214.436 467.688C214.603 467.631 214.747 467.545 214.866 467.432C214.985 467.318 215.076 467.179 215.139 467.014L216.818 467.125C216.733 467.528 216.558 467.881 216.294 468.182C216.032 468.48 215.694 468.713 215.279 468.881C214.868 469.045 214.392 469.128 213.852 469.128ZM220.998 469.128C220.328 469.128 219.751 468.986 219.268 468.702C218.788 468.415 218.419 468.017 218.16 467.509C217.904 467 217.777 466.415 217.777 465.753C217.777 465.082 217.906 464.494 218.164 463.989C218.426 463.48 218.797 463.084 219.277 462.8C219.757 462.513 220.328 462.369 220.99 462.369C221.561 462.369 222.061 462.473 222.49 462.68C222.919 462.888 223.258 463.179 223.508 463.554C223.758 463.929 223.896 464.369 223.922 464.875H222.208C222.16 464.548 222.032 464.286 221.825 464.087C221.62 463.885 221.352 463.784 221.02 463.784C220.738 463.784 220.493 463.861 220.282 464.014C220.075 464.165 219.913 464.385 219.797 464.675C219.68 464.964 219.622 465.315 219.622 465.727C219.622 466.145 219.679 466.5 219.792 466.793C219.909 467.085 220.072 467.308 220.282 467.462C220.493 467.615 220.738 467.692 221.02 467.692C221.227 467.692 221.413 467.649 221.578 467.564C221.745 467.479 221.883 467.355 221.991 467.193C222.102 467.028 222.174 466.831 222.208 466.601H223.922C223.893 467.101 223.757 467.541 223.512 467.922C223.271 468.3 222.937 468.595 222.511 468.808C222.085 469.021 221.581 469.128 220.998 469.128ZM228.565 462.455V463.818H224.624V462.455H228.565ZM225.518 460.886H227.334V466.989C227.334 467.156 227.359 467.287 227.411 467.381C227.462 467.472 227.533 467.536 227.624 467.572C227.717 467.609 227.825 467.628 227.947 467.628C228.033 467.628 228.118 467.621 228.203 467.607C228.288 467.589 228.354 467.577 228.399 467.568L228.685 468.919C228.594 468.947 228.466 468.98 228.301 469.017C228.136 469.057 227.936 469.081 227.7 469.089C227.263 469.107 226.879 469.048 226.55 468.915C226.223 468.781 225.969 468.574 225.787 468.293C225.605 468.011 225.516 467.656 225.518 467.227V460.886ZM229.748 469V462.455H231.563V469H229.748ZM230.66 461.611C230.39 461.611 230.158 461.521 229.965 461.342C229.775 461.161 229.68 460.943 229.68 460.69C229.68 460.44 229.775 460.226 229.965 460.047C230.158 459.865 230.39 459.774 230.66 459.774C230.93 459.774 231.16 459.865 231.35 460.047C231.543 460.226 231.64 460.44 231.64 460.69C231.64 460.943 231.543 461.161 231.35 461.342C231.16 461.521 230.93 461.611 230.66 461.611ZM239.12 462.455L236.831 469H234.786L232.498 462.455H234.415L235.775 467.138H235.843L237.198 462.455H239.12ZM242.821 469.128C242.147 469.128 241.568 468.991 241.082 468.719C240.599 468.443 240.227 468.054 239.966 467.551C239.704 467.045 239.574 466.447 239.574 465.757C239.574 465.084 239.704 464.493 239.966 463.984C240.227 463.476 240.595 463.08 241.069 462.795C241.547 462.511 242.106 462.369 242.748 462.369C243.18 462.369 243.582 462.439 243.954 462.578C244.329 462.714 244.656 462.92 244.934 463.196C245.216 463.472 245.434 463.818 245.591 464.236C245.747 464.651 245.825 465.136 245.825 465.693V466.192H240.298V465.067H244.116C244.116 464.805 244.059 464.574 243.946 464.372C243.832 464.17 243.674 464.013 243.473 463.899C243.274 463.783 243.042 463.724 242.778 463.724C242.502 463.724 242.258 463.788 242.045 463.916C241.835 464.041 241.67 464.21 241.551 464.423C241.431 464.634 241.37 464.868 241.368 465.126V466.196C241.368 466.52 241.427 466.8 241.547 467.036C241.669 467.271 241.841 467.453 242.062 467.581C242.284 467.709 242.547 467.773 242.85 467.773C243.052 467.773 243.237 467.744 243.404 467.688C243.572 467.631 243.716 467.545 243.835 467.432C243.954 467.318 244.045 467.179 244.108 467.014L245.787 467.125C245.701 467.528 245.527 467.881 245.262 468.182C245.001 468.48 244.663 468.713 244.248 468.881C243.836 469.045 243.36 469.128 242.821 469.128ZM253.567 460.273V469H251.722V462.024H251.67L249.672 463.277V461.641L251.832 460.273H253.567Z" fill="black"/>
<path d="M174.981 573V564.273H178.424C179.086 564.273 179.65 564.399 180.116 564.652C180.582 564.902 180.937 565.25 181.181 565.696C181.429 566.139 181.552 566.651 181.552 567.23C181.552 567.81 181.427 568.321 181.177 568.764C180.927 569.207 180.565 569.553 180.091 569.8C179.619 570.047 179.048 570.17 178.377 570.17H176.183V568.692H178.079C178.434 568.692 178.727 568.631 178.957 568.509C179.19 568.384 179.363 568.212 179.477 567.993C179.593 567.771 179.652 567.517 179.652 567.23C179.652 566.94 179.593 566.687 179.477 566.472C179.363 566.253 179.19 566.084 178.957 565.964C178.724 565.842 178.429 565.781 178.071 565.781H176.826V573H174.981ZM185.594 573.128C184.921 573.128 184.341 572.991 183.855 572.719C183.373 572.443 183 572.054 182.739 571.551C182.478 571.045 182.347 570.447 182.347 569.757C182.347 569.084 182.478 568.493 182.739 567.984C183 567.476 183.368 567.08 183.843 566.795C184.32 566.511 184.88 566.369 185.522 566.369C185.953 566.369 186.355 566.439 186.728 566.578C187.103 566.714 187.429 566.92 187.708 567.196C187.989 567.472 188.208 567.818 188.364 568.236C188.52 568.651 188.598 569.136 188.598 569.693V570.192H183.071V569.067H186.89C186.89 568.805 186.833 568.574 186.719 568.372C186.605 568.17 186.448 568.013 186.246 567.899C186.047 567.783 185.816 567.724 185.551 567.724C185.276 567.724 185.032 567.788 184.819 567.916C184.608 568.041 184.444 568.21 184.324 568.423C184.205 568.634 184.144 568.868 184.141 569.126V570.196C184.141 570.52 184.201 570.8 184.32 571.036C184.442 571.271 184.614 571.453 184.836 571.581C185.057 571.709 185.32 571.773 185.624 571.773C185.826 571.773 186.01 571.744 186.178 571.688C186.346 571.631 186.489 571.545 186.608 571.432C186.728 571.318 186.819 571.179 186.881 571.014L188.56 571.125C188.475 571.528 188.3 571.881 188.036 572.182C187.775 572.48 187.436 572.713 187.022 572.881C186.61 573.045 186.134 573.128 185.594 573.128ZM189.783 573V566.455H191.543V567.597H191.611C191.73 567.19 191.931 566.884 192.212 566.676C192.493 566.466 192.817 566.361 193.184 566.361C193.275 566.361 193.373 566.366 193.478 566.378C193.583 566.389 193.675 566.405 193.755 566.425V568.036C193.669 568.01 193.551 567.987 193.401 567.967C193.25 567.947 193.113 567.938 192.988 567.938C192.721 567.938 192.482 567.996 192.272 568.112C192.064 568.226 191.9 568.385 191.777 568.589C191.658 568.794 191.598 569.03 191.598 569.297V573H189.783ZM200.139 568.321L198.477 568.423C198.449 568.281 198.388 568.153 198.294 568.04C198.2 567.923 198.077 567.831 197.923 567.763C197.773 567.692 197.592 567.656 197.382 567.656C197.101 567.656 196.864 567.716 196.67 567.835C196.477 567.952 196.381 568.108 196.381 568.304C196.381 568.46 196.443 568.592 196.568 568.7C196.693 568.808 196.908 568.895 197.212 568.96L198.396 569.199C199.033 569.33 199.507 569.54 199.82 569.83C200.132 570.119 200.288 570.5 200.288 570.972C200.288 571.401 200.162 571.777 199.909 572.101C199.659 572.425 199.315 572.678 198.878 572.859C198.443 573.038 197.942 573.128 197.374 573.128C196.507 573.128 195.817 572.947 195.303 572.587C194.791 572.223 194.491 571.729 194.403 571.104L196.189 571.01C196.243 571.274 196.374 571.476 196.581 571.615C196.788 571.751 197.054 571.82 197.378 571.82C197.696 571.82 197.952 571.759 198.145 571.636C198.341 571.511 198.44 571.351 198.443 571.155C198.44 570.99 198.371 570.855 198.234 570.75C198.098 570.642 197.888 570.56 197.604 570.503L196.47 570.277C195.831 570.149 195.355 569.928 195.043 569.612C194.733 569.297 194.578 568.895 194.578 568.406C194.578 567.986 194.692 567.624 194.919 567.32C195.149 567.016 195.472 566.781 195.886 566.616C196.304 566.452 196.793 566.369 197.352 566.369C198.179 566.369 198.83 566.544 199.304 566.893C199.781 567.243 200.06 567.719 200.139 568.321ZM201.431 575.455V566.455H203.221V567.554H203.302C203.382 567.378 203.497 567.199 203.647 567.017C203.801 566.832 204 566.679 204.244 566.557C204.491 566.432 204.798 566.369 205.164 566.369C205.642 566.369 206.082 566.494 206.485 566.744C206.889 566.991 207.211 567.365 207.453 567.865C207.694 568.362 207.815 568.986 207.815 569.736C207.815 570.466 207.697 571.082 207.461 571.585C207.228 572.085 206.91 572.464 206.507 572.723C206.106 572.979 205.657 573.107 205.16 573.107C204.808 573.107 204.508 573.048 204.261 572.932C204.017 572.815 203.816 572.669 203.66 572.493C203.504 572.314 203.385 572.134 203.302 571.952H203.247V575.455H201.431ZM203.208 569.727C203.208 570.116 203.262 570.456 203.37 570.746C203.478 571.036 203.635 571.261 203.839 571.423C204.044 571.582 204.292 571.662 204.585 571.662C204.88 571.662 205.13 571.581 205.335 571.419C205.539 571.254 205.694 571.027 205.799 570.737C205.907 570.445 205.961 570.108 205.961 569.727C205.961 569.349 205.909 569.017 205.804 568.73C205.699 568.443 205.544 568.219 205.339 568.057C205.135 567.895 204.883 567.814 204.585 567.814C204.289 567.814 204.039 567.892 203.835 568.048C203.633 568.205 203.478 568.426 203.37 568.713C203.262 569 203.208 569.338 203.208 569.727ZM212.008 573.128C211.335 573.128 210.755 572.991 210.27 572.719C209.787 572.443 209.414 572.054 209.153 571.551C208.892 571.045 208.761 570.447 208.761 569.757C208.761 569.084 208.892 568.493 209.153 567.984C209.414 567.476 209.782 567.08 210.257 566.795C210.734 566.511 211.294 566.369 211.936 566.369C212.368 566.369 212.77 566.439 213.142 566.578C213.517 566.714 213.843 566.92 214.122 567.196C214.403 567.472 214.622 567.818 214.778 568.236C214.934 568.651 215.012 569.136 215.012 569.693V570.192H209.485V569.067H213.304C213.304 568.805 213.247 568.574 213.133 568.372C213.02 568.17 212.862 568.013 212.66 567.899C212.461 567.783 212.23 567.724 211.966 567.724C211.69 567.724 211.446 567.788 211.233 567.916C211.022 568.041 210.858 568.21 210.738 568.423C210.619 568.634 210.558 568.868 210.555 569.126V570.196C210.555 570.52 210.615 570.8 210.734 571.036C210.856 571.271 211.028 571.453 211.25 571.581C211.471 571.709 211.734 571.773 212.038 571.773C212.24 571.773 212.424 571.744 212.592 571.688C212.76 571.631 212.903 571.545 213.022 571.432C213.142 571.318 213.233 571.179 213.295 571.014L214.974 571.125C214.889 571.528 214.714 571.881 214.45 572.182C214.189 572.48 213.85 572.713 213.436 572.881C213.024 573.045 212.548 573.128 212.008 573.128ZM219.154 573.128C218.484 573.128 217.907 572.986 217.424 572.702C216.944 572.415 216.575 572.017 216.316 571.509C216.061 571 215.933 570.415 215.933 569.753C215.933 569.082 216.062 568.494 216.321 567.989C216.582 567.48 216.953 567.084 217.433 566.8C217.913 566.513 218.484 566.369 219.146 566.369C219.717 566.369 220.217 566.473 220.646 566.68C221.075 566.888 221.414 567.179 221.664 567.554C221.914 567.929 222.052 568.369 222.078 568.875H220.365C220.316 568.548 220.189 568.286 219.981 568.087C219.777 567.885 219.508 567.784 219.176 567.784C218.895 567.784 218.649 567.861 218.439 568.014C218.231 568.165 218.069 568.385 217.953 568.675C217.836 568.964 217.778 569.315 217.778 569.727C217.778 570.145 217.835 570.5 217.949 570.793C218.065 571.085 218.228 571.308 218.439 571.462C218.649 571.615 218.895 571.692 219.176 571.692C219.383 571.692 219.569 571.649 219.734 571.564C219.902 571.479 220.039 571.355 220.147 571.193C220.258 571.028 220.331 570.831 220.365 570.601H222.078C222.049 571.101 221.913 571.541 221.669 571.922C221.427 572.3 221.093 572.595 220.667 572.808C220.241 573.021 219.737 573.128 219.154 573.128ZM226.722 566.455V567.818H222.78V566.455H226.722ZM223.675 564.886H225.49V570.989C225.49 571.156 225.516 571.287 225.567 571.381C225.618 571.472 225.689 571.536 225.78 571.572C225.874 571.609 225.982 571.628 226.104 571.628C226.189 571.628 226.274 571.621 226.359 571.607C226.445 571.589 226.51 571.577 226.555 571.568L226.841 572.919C226.75 572.947 226.622 572.98 226.457 573.017C226.293 573.057 226.092 573.081 225.857 573.089C225.419 573.107 225.036 573.048 224.706 572.915C224.379 572.781 224.125 572.574 223.943 572.293C223.761 572.011 223.672 571.656 223.675 571.227V564.886ZM227.904 573V566.455H229.719V573H227.904ZM228.816 565.611C228.546 565.611 228.315 565.521 228.121 565.342C227.931 565.161 227.836 564.943 227.836 564.69C227.836 564.44 227.931 564.226 228.121 564.047C228.315 563.865 228.546 563.774 228.816 563.774C229.086 563.774 229.316 563.865 229.506 564.047C229.7 564.226 229.796 564.44 229.796 564.69C229.796 564.943 229.7 565.161 229.506 565.342C229.316 565.521 229.086 565.611 228.816 565.611ZM237.276 566.455L234.988 573H232.942L230.654 566.455H232.571L233.931 571.138H233.999L235.354 566.455H237.276ZM240.977 573.128C240.304 573.128 239.724 572.991 239.238 572.719C238.755 572.443 238.383 572.054 238.122 571.551C237.86 571.045 237.73 570.447 237.73 569.757C237.73 569.084 237.86 568.493 238.122 567.984C238.383 567.476 238.751 567.08 239.225 566.795C239.703 566.511 240.262 566.369 240.904 566.369C241.336 566.369 241.738 566.439 242.11 566.578C242.485 566.714 242.812 566.92 243.091 567.196C243.372 567.472 243.591 567.818 243.747 568.236C243.903 568.651 243.981 569.136 243.981 569.693V570.192H238.454V569.067H242.272C242.272 568.805 242.216 568.574 242.102 568.372C241.988 568.17 241.831 568.013 241.629 567.899C241.43 567.783 241.199 567.724 240.934 567.724C240.659 567.724 240.414 567.788 240.201 567.916C239.991 568.041 239.826 568.21 239.707 568.423C239.588 568.634 239.527 568.868 239.524 569.126V570.196C239.524 570.52 239.583 570.8 239.703 571.036C239.825 571.271 239.997 571.453 240.218 571.581C240.44 571.709 240.703 571.773 241.007 571.773C241.208 571.773 241.393 571.744 241.561 571.688C241.728 571.631 241.872 571.545 241.991 571.432C242.11 571.318 242.201 571.179 242.264 571.014L243.943 571.125C243.858 571.528 243.683 571.881 243.419 572.182C243.157 572.48 242.819 572.713 242.404 572.881C241.993 573.045 241.517 573.128 240.977 573.128ZM247.926 573V571.67L251.033 568.794C251.297 568.538 251.518 568.308 251.697 568.104C251.879 567.899 252.017 567.699 252.111 567.503C252.205 567.304 252.251 567.089 252.251 566.859C252.251 566.604 252.193 566.384 252.077 566.199C251.96 566.011 251.801 565.868 251.599 565.768C251.398 565.666 251.169 565.615 250.913 565.615C250.646 565.615 250.413 565.669 250.214 565.777C250.016 565.885 249.862 566.04 249.754 566.241C249.646 566.443 249.592 566.683 249.592 566.962H247.841C247.841 566.391 247.97 565.895 248.229 565.474C248.487 565.054 248.849 564.729 249.315 564.499C249.781 564.268 250.318 564.153 250.926 564.153C251.551 564.153 252.095 564.264 252.558 564.486C253.024 564.705 253.386 565.009 253.645 565.398C253.903 565.787 254.033 566.233 254.033 566.736C254.033 567.065 253.967 567.391 253.837 567.712C253.709 568.033 253.48 568.389 253.151 568.781C252.821 569.17 252.357 569.638 251.757 570.183L250.483 571.432V571.491H254.148V573H247.926Z" fill="black"/>
<line x1="167" y1="444.5" x2="452" y2="444.5" stroke="black" stroke-dasharray="2 2"/>
<defs>
<radialGradient id="paint0_diamond_1_2" cx="0" cy="0" r="1" gradientUnits="userSpaceOnUse" gradientTransform="translate(222 396.5) rotate(90) scale(26.5 36)">
<stop stop-color="#5C00F2"/>
<stop offset="1" stop-color="#D9D9D9" stop-opacity="0"/>
</radialGradient>
<radialGradient id="paint1_radial_1_2" cx="0" cy="0" r="1" gradientUnits="userSpaceOnUse" gradientTransform="translate(414 396.5) rotate(90) scale(26.5 36)">
<stop stop-color="#05FF00"/>
<stop offset="1" stop-color="#D9D9D9" stop-opacity="0"/>
</radialGradient>
<radialGradient id="paint2_diamond_1_2" cx="0" cy="0" r="1" gradientUnits="userSpaceOnUse" gradientTransform="translate(222 523.5) rotate(90) scale(26.5 36)">
<stop stop-color="#5C00F2"/>
<stop offset="1" stop-color="#D9D9D9" stop-opacity="0"/>
</radialGradient>
<radialGradient id="paint3_radial_1_2" cx="0" cy="0" r="1" gradientUnits="userSpaceOnUse" gradientTransform="translate(414 523.5) rotate(90) scale(26.5 36)">
<stop stop-color="#05FF00"/>
<stop offset="1" stop-color="#D9D9D9" stop-opacity="0"/>
</radialGradient>
<radialGradient id="paint4_diamond_1_2" cx="0" cy="0" r="1" gradientUnits="userSpaceOnUse" gradientTransform="translate(224 628.5) rotate(90) scale(26.5 36)">
<stop stop-color="#5C00F2"/>
<stop offset="1" stop-color="#D9D9D9" stop-opacity="0"/>
</radialGradient>
<radialGradient id="paint5_radial_1_2" cx="0" cy="0" r="1" gradientUnits="userSpaceOnUse" gradientTransform="translate(416 628.5) rotate(90) scale(26.5 36)">
<stop stop-color="#05FF00"/>
<stop offset="1" stop-color="#D9D9D9" stop-opacity="0"/>
</radialGradient>
</defs>
</svg>
